<?xml version="1.0" encoding="utf-8"?>
<!-- Generator: Adobe Illustrator 18.0.0, SVG Export Plug-In . SVG Version: 6.00 Build 0)  -->
<!DOCTYPE svg PUBLIC "-//W3C//DTD SVG 1.1//EN" "http://www.w3.org/Graphics/SVG/1.1/DTD/svg11.dtd">
<svg version="1.1" id="Layer_1" xmlns="http://www.w3.org/2000/svg" xmlns:xlink="http://www.w3.org/1999/xlink" x="0px" y="0px"
	 viewBox="0 0 141.7 31.9" enable-background="new 0 0 141.7 31.9" xml:space="preserve">
<g>
	<polygon points="138.4,7.2 141.7,0.6 123.5,0.6 108,31.5 126.6,31.5 129.9,24.9 119.3,24.9 122.4,18.8 132,18.8 135.1,12.4 
		125.5,12.4 128.2,7.2 	"/>
	<path d="M111.9,21.3l1.2-2.3h-7.8c-0.7,1.5-1.4,2.7-1.9,3.7c-0.6,1-1.1,1.7-1.5,2.3c-0.5,0.6-0.9,1-1.4,1.2
		c-0.4,0.2-0.9,0.4-1.4,0.4c-0.6,0-1-0.2-1.2-0.5c-0.2-0.3-0.2-0.9,0-1.7c0.2-0.8,0.6-1.9,1.3-3.3c0.6-1.4,1.5-3.1,2.5-5.2
		c1-2.1,1.9-3.8,2.7-5.2c0.7-1.4,1.4-2.5,2-3.3c0.6-0.8,1.1-1.4,1.7-1.7c0.5-0.3,1.1-0.5,1.7-0.5c0.8,0,1.2,0.3,1.2,0.9
		c0,0.6-0.4,1.8-1.3,3.6l-0.9,1.7h7.8l1-1.9c0.8-1.5,1.2-2.8,1.5-4c0.2-1.2,0.2-2.2-0.2-3.1c-0.4-0.9-1.1-1.5-2.1-2
		c-1-0.5-2.5-0.7-4.3-0.7c-2.1,0-4,0.3-5.6,0.8c-1.7,0.6-3.3,1.5-4.8,2.7c-1.5,1.3-2.9,2.9-4.3,5c-1.4,2-2.8,4.5-4.3,7.5
		c-1.4,2.9-2.5,5.3-3.2,7.4c-0.7,2-1,3.7-0.8,5c0.2,1.3,0.8,2.2,2,2.7c1.2,0.5,2.9,0.8,5.1,0.8c1.3,0,2.6-0.1,4-0.4
		c1.4-0.3,2.7-0.8,4.1-1.6c1.3-0.8,2.7-1.9,3.9-3.3C109.6,25.3,110.8,23.5,111.9,21.3z"/>
	<path d="M84.3,0.6L62.9,29.5l2.3-4.6h-9.9L67.5,0.6h-8L44,31.5h17.5h0.5h8l3.5-5.4h6.4l-1.9,5.4h8.6l8-30.9H84.3z M81.9,20h-4.5
		l8.8-13.1h0.1L81.9,20z"/>
	<path d="M40.7,0.6L17.8,31.5h8.4l3.5-5.4h6.4l-1.9,5.4h8.6l8-30.9H40.7z M38.3,20h-4.5l8.8-13.1h0.1L38.3,20z"/>
	<path d="M31.7,10.1c0.7-1.4,1.1-2.6,1.4-3.8c0.2-1.2,0.2-2.2-0.1-3c-0.3-0.9-0.9-1.5-1.8-2c-0.9-0.5-2.1-0.7-3.6-0.7H15.5L0,31.5h8
		l5.9-11.8h2.8c3.3,0,6.2-0.8,8.7-2.4C28,15.7,30.1,13.3,31.7,10.1z M23.4,10.2c-0.7,1.3-1.4,2.2-2.2,2.9c-0.8,0.6-1.8,0.9-2.8,0.9
		h-1.5l3.8-7.5h1.5C24.2,6.4,24.6,7.6,23.4,10.2z"/>
</g>
</svg>
